<svg xmlns="http://www.w3.org/2000/svg" viewBox="0 0 256 288">
  <path fill="#8CC84B" d="M128 .003L0 72.004v144.004L128 288l128-71.992V72.004L128 .003zm37.406 209.252c-8.568 17.797-26.052 20.354-44.377 11.486-11.34-5.67-17.707-11.34-24.843-19.237l20.354-20.354c5.67 6.794 11.34 11.34 19.237 14.568 8.568 3.228 14.568 0 17.797-8.568 3.228-8.568 0-14.568-11.34-20.354l-8.568-5.67c-25.127-14.568-34.935-31.034-25.127-56.16 5.67-14.568 19.237-25.126 37.034-25.126 11.34 0 19.237 2.835 25.127 8.568 6.793 5.67 11.34 11.34 14.568 19.237l-22.19 17.797c-3.228-5.67-5.67-8.568-11.34-11.34-8.568-3.228-14.568 0-14.568 8.568 0 5.67 2.835 8.568 11.34 14.568l8.568 5.67c28.414 16.514 34.935 34.311 25.127 56.16z"/>
</svg>