<svg xmlns="http://www.w3.org/2000/svg" viewBox="0 0 128 128">
  <path fill="#306998" d="M63.6 0C36.6 0 38.8 14.3 38.8 14.3L38.7 26h25.7v3.9H28.4S13.5 29.8 13.5 56.6c0 26.6 13.3 26.6 13.3 26.6h9.4v-13s-.4-13.5 13.6-13.5H77s12.8.2 12.8-13.3V14.3S91.8 0 63.6 0zm-12 9.7c2.7 0 4.9 2.2 4.9 4.9s-2.2 4.9-4.9 4.9-4.9-2.2-4.9-4.9 2.2-4.9 4.9-4.9z"/>
  <path fill="#FFD43B" d="M64.4 128c27 0 25-14.3 25-14.3L89.3 102H63.6v-3.9h36s14.9-.2 14.9-27c0-26.6-14.2-26.6-14.2-26.6h-9.4v13s.4 13.5-13.6 13.5H51.6S38.8 70.2 38.8 83.7v29.4S36.6 128 64.4 128zm12-9.7c-2.7 0-4.9-2.2-4.9-4.9s2.2-4.9 4.9-4.9 4.9 2.2 4.9 4.9-2.2 4.9-4.9 4.9z"/>
</svg>